<?xml version="1.0" standalone="no"?>
<!DOCTYPE svg PUBLIC "-//W3C//DTD SVG 20010904//EN"
 "http://www.w3.org/TR/2001/REC-SVG-20010904/DTD/svg10.dtd">
<svg version="1.0" xmlns="http://www.w3.org/2000/svg"
 width="512.000000pt" height="512.000000pt" viewBox="0 0 512.000000 512.000000"
 preserveAspectRatio="xMidYMid meet">

<g transform="translate(0.000000,512.000000) scale(0.100000,-0.100000)"
fill="#000000" stroke="none">
<path d="M990 4517 l0 -602 -496 -495 -495 -495 3 -135 c3 -107 7 -142 22
-170 25 -49 64 -88 108 -111 l38 -19 0 -1245 0 -1245 2390 0 2390 0 0 183 0
184 48 40 c28 24 62 67 83 104 l34 64 3 465 c2 256 1 474 -2 486 -3 11 -17 37
-31 58 l-26 38 27 53 c66 136 23 318 -96 400 l-40 28 0 193 0 194 38 19 c44
23 83 62 108 111 15 28 19 63 22 170 l3 135 -495 495 -496 495 0 602 0 603
-1570 0 -1570 0 0 -603z m2970 -307 l0 -740 -1400 0 -1400 0 0 740 0 740 1400
0 1400 0 0 -740z m-2875 -910 c52 0 95 -2 95 -5 0 -3 -35 -75 -77 -160 l-78
-155 -365 0 -365 0 345 345 345 345 3 -185 2 -185 95 0z m3395 25 l345 -345
-365 0 -365 0 -78 155 c-42 85 -77 157 -77 160 0 3 43 5 95 5 l95 0 0 185 c0
102 1 185 3 185 1 0 157 -155 347 -345z m-2500 -190 l0 -165 -385 0 c-212 0
-385 2 -385 5 0 3 36 77 80 165 l80 160 305 0 305 0 0 -165z m990 5 l0 -160
-410 0 -410 0 0 160 0 160 410 0 410 0 0 -160z m860 0 c44 -88 80 -162 80
-165 0 -3 -173 -5 -385 -5 l-385 0 0 165 0 165 305 0 305 0 80 -160z m-1850
-384 c0 -44 -5 -61 -24 -83 l-24 -28 -344 -3 c-188 -2 -353 0 -366 3 -45 11
-62 40 -62 105 l0 60 410 0 410 0 0 -54z m1980 -6 c0 -65 -17 -94 -62 -105
-13 -3 -177 -5 -365 -3 l-341 3 -26 24 c-22 21 -26 33 -26 83 l0 58 410 0 410
0 0 -60z m-2972 -7 c-8 -97 10 -93 -413 -93 l-364 0 -20 26 c-15 19 -21 41
-21 75 l0 49 411 0 411 0 -4 -57z m1982 7 c0 -41 -5 -56 -25 -75 l-24 -25
-361 0 -361 0 -24 25 c-20 19 -25 34 -25 75 l0 50 410 0 410 0 0 -50z m1980 1
c0 -34 -6 -56 -21 -75 l-20 -26 -364 0 c-423 0 -405 -4 -413 93 l-4 57 411 0
411 0 0 -49z m-3380 -271 l388 0 53 28 52 27 55 -27 55 -28 387 0 387 0 55 28
55 27 52 -27 53 -28 388 0 387 0 55 28 55 27 52 -27 53 -28 319 0 319 0 0
-164 0 -163 -58 -12 c-215 -42 -332 -272 -238 -466 l27 -55 -28 -37 -28 -36 0
-486 c0 -477 0 -487 22 -533 46 -100 151 -180 255 -194 l48 -7 0 -78 0 -79
-250 0 -250 0 0 753 c0 717 -1 758 -20 831 -83 326 -381 556 -720 556 -121 0
-226 -25 -340 -82 -69 -34 -103 -60 -180 -138 -78 -77 -104 -111 -138 -180
-84 -169 -82 -143 -82 -992 l0 -748 -1240 0 -1240 0 0 1155 0 1155 319 0 319
0 53 28 52 27 55 -27 55 -28 387 0z m2124 -355 c58 -15 144 -54 181 -81 19
-14 17 -17 -37 -70 l-56 -57 -58 29 c-54 27 -68 29 -169 29 -100 0 -115 -3
-173 -29 l-63 -29 -55 54 c-29 29 -54 56 -54 60 0 12 136 78 191 93 72 19 220
20 293 1z m1184 -172 c73 -54 95 -155 49 -224 -24 -37 -97 -79 -137 -79 -40 0
-113 42 -137 79 -27 40 -31 117 -9 159 18 34 53 68 86 81 37 16 117 7 148 -16z
m-1729 -97 l54 -55 -25 -58 c-14 -32 -28 -66 -31 -75 -5 -15 -19 -18 -87 -18
l-80 0 6 28 c13 60 28 100 61 165 20 37 38 67 42 67 4 0 31 -25 60 -54z m940
-87 c10 -30 22 -69 26 -87 l7 -33 -83 3 -82 3 -12 43 c-7 23 -21 54 -30 68
-17 26 -17 26 41 85 l58 59 28 -44 c16 -24 37 -67 47 -97z m-471 35 c41 -8 99
-50 132 -96 17 -22 30 -45 30 -50 0 -4 -104 -8 -230 -8 l-230 0 19 38 c32 63
92 108 162 121 43 8 57 7 117 -5z m-148 -569 l0 -245 -85 0 -86 0 3 -82 3 -83
83 -3 82 -3 0 -324 0 -325 -245 0 -245 0 0 655 0 655 245 0 245 0 0 -245z
m660 -410 l0 -655 -245 0 -245 0 0 325 0 325 80 0 80 0 0 85 0 85 -80 0 -80 0
0 245 0 245 245 0 245 0 0 -655z m820 605 l0 -50 -92 46 c-51 25 -95 48 -97
50 -2 2 39 4 92 4 l97 0 0 -50z m0 -350 c0 -61 -2 -110 -5 -110 -3 0 -75 35
-160 77 l-155 78 0 112 0 113 160 -80 160 -80 0 -110z m-210 -200 l95 -49
-102 0 -103 -1 0 50 c0 28 3 50 8 49 4 0 50 -22 102 -49z m207 -255 c-12 -74
-76 -125 -157 -125 -81 0 -145 51 -157 125 l-6 35 163 0 163 0 -6 -35z"/>
<path d="M1679 4777 c-120 -45 -189 -140 -189 -259 0 -101 32 -129 251 -224
98 -43 176 -80 174 -84 -2 -4 -80 -40 -172 -80 -92 -40 -180 -81 -194 -91 -61
-43 -77 -154 -35 -244 25 -55 87 -117 139 -139 127 -53 284 -10 392 106 67 72
95 142 102 261 3 48 8 87 10 87 3 0 160 -68 350 -151 190 -84 348 -148 352
-143 18 22 62 137 55 144 -5 4 -130 60 -279 124 -148 65 -273 121 -277 124 -4
4 121 63 277 131 157 69 285 130 284 135 0 6 -15 41 -32 78 l-32 66 -350 -154
c-192 -85 -351 -154 -352 -154 -2 0 -3 28 -3 63 0 228 -151 400 -362 413 -47
3 -86 0 -109 -9z m176 -176 c76 -34 131 -123 123 -197 l-3 -32 -160 70 c-88
38 -162 71 -164 74 -8 8 23 66 47 84 32 26 103 26 157 1z m125 -583 c0 -60
-21 -109 -63 -152 -88 -87 -217 -87 -253 1 -9 19 -13 38 -10 40 6 7 308 141
319 142 4 1 7 -14 7 -31z"/>
<path d="M2810 4210 l0 -80 80 0 80 0 0 80 0 80 -80 0 -80 0 0 -80z"/>
<path d="M3140 4210 l0 -80 80 0 80 0 0 80 0 80 -80 0 -80 0 0 -80z"/>
<path d="M3470 4210 l0 -80 80 0 80 0 0 80 0 80 -80 0 -80 0 0 -80z"/>
<path d="M492 1403 l3 -908 1073 -3 1072 -2 0 910 0 910 -1075 0 -1075 0 2
-907z m330 665 l3 -83 83 -3 82 -3 0 86 0 85 80 0 80 0 0 -165 0 -165 85 0 85
0 2 163 3 162 77 3 77 3 3 -83 3 -83 82 -3 82 -3 3 83 3 83 410 0 410 0 3
-742 2 -743 -85 0 -85 0 0 568 c0 636 2 610 -75 685 -110 107 -299 84 -380
-47 l-30 -49 -5 -246 -5 -246 -333 -3 -333 -2 3 -83 3 -82 83 -3 82 -3 0 -78
0 -79 -98 -4 c-89 -3 -103 -6 -148 -33 -63 -39 -105 -108 -129 -214 l-18 -81
-134 0 -133 0 0 745 0 745 80 0 79 0 3 -82z m1298 -278 c16 -16 20 -33 20 -80
l0 -60 -75 0 -75 0 0 60 c0 72 21 100 75 100 22 0 43 -8 55 -20z m20 -720 c0
-265 -4 -410 -10 -410 -5 0 -39 58 -75 130 l-65 130 0 280 0 280 75 0 75 0 0
-410z m-322 3 l-3 -78 -162 -3 -163 -2 0 80 0 80 165 0 166 0 -3 -77z m72
-333 l40 -80 -416 0 c-391 0 -415 1 -411 18 3 9 10 39 17 65 21 79 10 77 392
77 l338 0 40 -80z"/>
<path d="M827 1813 c-4 -3 -7 -42 -7 -85 l0 -78 85 0 85 0 0 85 0 85 -78 0
c-43 0 -82 -3 -85 -7z"/>
<path d="M1484 1807 c-3 -8 -4 -45 -2 -83 l3 -69 83 -3 82 -3 0 86 0 85 -80 0
c-58 0 -82 -4 -86 -13z"/>
<path d="M1152 1568 l3 -83 83 -3 82 -3 0 86 0 85 -85 0 -86 0 3 -82z"/>
</g>
</svg>
