<?xml version="1.0" standalone="no"?>
<!DOCTYPE svg PUBLIC "-//W3C//DTD SVG 20010904//EN"
 "http://www.w3.org/TR/2001/REC-SVG-20010904/DTD/svg10.dtd">
<svg version="1.0" xmlns="http://www.w3.org/2000/svg"
 width="991.000000pt" height="1069.000000pt" viewBox="0 0 991.000000 1069.000000"
 preserveAspectRatio="xMidYMid meet">

<g transform="translate(0.000000,1069.000000) scale(0.100000,-0.100000)"
fill="#000000" stroke="none">
<path d="M4605 10600 c-553 -88 -1048 -353 -1482 -792 -298 -301 -501 -589
-697 -988 -87 -177 -94 -192 -154 -345 -100 -255 -175 -515 -236 -820 -22
-107 -37 -207 -66 -430 -5 -38 -14 -177 -21 -308 -17 -322 -3 -624 47 -982 40
-280 109 -572 206 -860 22 -66 44 -128 50 -137 12 -24 7 -23 -60 11 -240 121
-525 61 -595 -125 -28 -74 -32 -192 -12 -348 10 -75 15 -160 12 -190 -7 -68
-51 -155 -116 -229 -67 -76 -81 -112 -81 -204 0 -60 5 -85 27 -129 39 -80 134
-166 237 -214 46 -22 91 -40 99 -40 28 0 29 -20 4 -63 -70 -119 -87 -163 -87
-226 0 -86 28 -140 125 -237 216 -217 661 -484 1070 -641 176 -68 484 -164
600 -187 17 -3 62 -12 100 -21 417 -91 1087 -137 1689 -115 493 17 736 43
1091 117 244 50 593 159 785 245 155 69 195 88 290 136 369 189 713 449 782
592 14 30 21 65 21 105 1 61 -18 110 -89 231 -27 47 -25 51 41 73 121 40 251
144 300 241 24 46 28 67 28 130 -1 92 -16 129 -84 207 -64 73 -109 161 -116
227 -3 28 2 103 11 166 34 246 15 381 -68 463 -112 112 -350 127 -537 32 -56
-28 -77 -32 -62 -12 11 13 103 288 128 380 99 368 139 606 170 992 43 543 -16
1186 -155 1685 -86 310 -180 560 -310 825 -400 813 -1018 1411 -1725 1667
-170 61 -303 94 -494 123 -147 21 -517 19 -666 -5z m700 -295 c135 -24 257
-56 285 -74 21 -13 325 -265 340 -281 3 -3 32 -28 65 -55 33 -28 94 -79 135
-114 41 -35 86 -73 100 -85 64 -53 155 -131 160 -136 3 -3 59 -50 125 -105 66
-55 122 -102 125 -105 3 -3 77 -66 165 -140 88 -74 162 -137 165 -140 3 -3 42
-36 86 -73 45 -37 95 -82 112 -101 38 -43 204 -381 267 -541 73 -186 122 -346
120 -390 -1 -22 1 -44 4 -50 12 -21 31 -81 31 -100 0 -12 4 -25 9 -30 10 -11
22 -80 24 -143 1 -24 3 -38 6 -30 6 18 30 -87 31 -134 0 -20 5 -40 10 -43 6
-3 10 -26 10 -50 0 -24 4 -46 9 -49 13 -8 20 -55 36 -226 15 -159 20 -410 9
-410 -6 0 -92 66 -104 80 -3 3 -77 66 -165 140 -174 147 -189 160 -221 187
-12 10 -67 56 -122 103 -96 81 -101 87 -102 124 0 38 0 39 -20 21 -10 -9 -25
-15 -32 -12 -7 3 -83 66 -169 139 -85 73 -179 153 -209 178 -29 25 -146 123
-259 219 -113 96 -231 195 -261 220 -111 92 -121 104 -116 126 39 142 60 227
77 310 11 55 28 118 38 140 21 45 35 132 35 220 1 102 -24 306 -40 330 -8 12
-26 58 -40 101 -59 182 -100 234 -259 336 -93 59 -169 93 -293 134 -104 34
-157 57 -164 71 -3 5 -3 2 -2 -4 4 -15 -8 -17 -21 -4 -15 14 -135 24 -290 24
-177 0 -263 -10 -294 -34 -13 -11 -31 -19 -40 -19 -59 -1 -238 -84 -327 -151
-36 -27 -67 -49 -70 -49 -5 0 -373 310 -419 353 -29 27 -29 28 -10 40 94 57
267 140 373 176 57 21 65 21 93 7 28 -14 30 -14 25 2 -5 15 7 20 77 36 45 9
95 22 111 27 16 5 42 9 57 9 15 0 31 5 34 10 3 6 36 10 73 11 37 0 83 7 102
15 47 19 397 12 525 -11z m-1774 -591 c30 -25 65 -56 79 -68 14 -11 55 -46 90
-76 36 -30 70 -59 76 -65 6 -5 76 -64 154 -130 79 -66 157 -133 173 -149 l30
-28 -7 -92 c-3 -50 -13 -127 -21 -170 -24 -124 -20 -190 15 -265 17 -36 27
-67 21 -70 -12 -8 -31 -114 -33 -183 -2 -64 22 -218 34 -218 4 0 8 -9 8 -20 0
-11 5 -20 10 -20 6 0 10 -8 10 -17 1 -23 31 -108 53 -150 9 -18 17 -39 17 -48
0 -25 -37 -17 -60 13 -19 23 -21 35 -16 87 6 53 5 58 -9 44 -21 -21 -30 -108
-16 -152 11 -33 72 -99 101 -109 10 -3 8 -27 -9 -113 -25 -131 -28 -227 -6
-245 13 -11 15 -8 15 13 0 14 5 38 12 54 10 25 12 18 20 -71 4 -55 6 -101 3
-104 -4 -4 -103 73 -160 125 -11 10 -61 52 -110 93 -50 41 -92 77 -95 80 -3 3
-90 77 -195 165 -104 87 -192 162 -195 165 -3 3 -45 39 -95 80 -49 41 -103 87
-120 101 -41 36 -273 232 -425 359 -69 58 -136 115 -150 126 -14 12 -38 33
-54 46 l-29 25 48 89 c74 139 171 288 191 298 19 9 64 70 64 87 0 5 3 9 8 9 4
0 21 20 37 45 17 25 35 43 42 40 7 -2 10 2 7 10 -3 7 17 37 45 66 28 29 51 61
51 70 0 19 304 319 323 319 7 0 38 -21 68 -46z m1199 37 c0 -6 -5 -13 -10 -16
-23 -14 -62 -91 -89 -172 -25 -78 -28 -83 -34 -55 -8 38 10 144 26 155 8 6 7
7 -3 4 -17 -4 -61 -87 -88 -162 -9 -28 -21 -52 -26 -55 -14 -7 -34 58 -35 110
-1 64 45 158 66 136 4 -3 2 -22 -4 -41 -7 -21 -7 -37 -2 -41 5 -3 9 -1 9 5 0
14 90 101 105 101 7 0 23 9 36 20 26 21 49 26 49 11z m140 2 c0 -4 -24 -32
-54 -63 -30 -30 -75 -86 -100 -125 -39 -60 -46 -66 -46 -43 0 46 30 121 63
156 41 44 137 96 137 75z m94 -64 c-38 -29 -98 -81 -132 -116 -35 -35 -66 -62
-68 -60 -3 3 3 23 12 46 20 50 91 116 165 153 88 45 99 33 23 -23z m161 1 c-4
-6 -24 -19 -46 -30 -21 -11 -70 -41 -108 -65 -73 -47 -81 -51 -81 -36 0 35 89
97 180 126 56 17 63 18 55 5z m70 -33 c-63 -42 -187 -109 -192 -103 -21 20
132 115 187 116 23 0 24 -1 5 -13z m-781 -79 c-8 -90 -13 -108 -29 -108 -32 0
-31 97 2 146 25 39 33 28 27 -38z m876 52 c0 -11 -149 -84 -156 -77 -10 10 41
47 90 66 59 23 66 24 66 11z m70 -35 c0 -5 -68 -41 -105 -55 -44 -17 -28 8 23
34 43 23 82 33 82 21z m26 -50 c-17 -9 -37 -14 -45 -12 -20 5 23 25 54 26 16
1 13 -3 -9 -14z m488 -131 c14 -8 32 -27 41 -41 27 -40 75 -249 85 -368 8 -97
4 -255 -7 -255 -2 0 -21 18 -42 40 -34 36 -43 40 -88 40 -83 0 -149 -63 -166
-157 -9 -46 4 -41 43 15 36 54 85 92 117 92 66 0 108 -99 101 -243 -3 -82 -7
-98 -37 -151 -49 -86 -110 -146 -148 -146 -32 0 -61 26 -81 72 -26 62 -43 156
-43 235 0 46 -5 95 -11 108 -11 25 -84 82 -93 73 -3 -3 2 -22 10 -43 20 -46
13 -56 -20 -25 -29 27 -30 22 -10 -44 l15 -48 -25 16 c-33 22 -35 21 -28 -20
5 -30 3 -36 -16 -41 -13 -3 -37 -32 -63 -77 -43 -75 -94 -147 -146 -206 -38
-43 -24 -51 28 -16 l40 26 0 -24 c0 -47 -32 -190 -51 -228 -19 -37 -55 -66
-67 -53 -4 4 -5 35 -3 71 3 70 -6 81 -29 31 -35 -75 -125 -76 -252 -2 -46 27
-93 54 -105 59 -29 14 -29 19 3 51 32 32 27 75 -13 117 -43 45 -58 35 -28 -17
32 -53 27 -79 -17 -94 -44 -15 -185 -14 -197 2 -6 6 -29 34 -51 60 -42 51 -56
86 -45 114 15 40 66 339 61 359 -9 34 -80 119 -121 144 -32 20 -45 22 -107 17
-85 -7 -132 -31 -136 -71 -2 -15 -1 -35 3 -44 5 -13 10 -10 24 18 l17 35 84
-2 c110 -3 145 -16 181 -65 46 -64 37 -104 -12 -52 -13 15 -42 35 -64 45 -39
17 -40 18 -10 18 32 1 24 18 -10 21 -49 5 -74 -2 -99 -27 -22 -22 -26 -34 -24
-67 3 -40 4 -41 43 -43 l40 -2 -32 14 c-35 16 -41 33 -21 53 19 19 35 14 48
-17 10 -26 17 -30 53 -29 23 0 43 -5 45 -11 2 -6 14 -11 26 -11 13 0 25 -2 28
-5 10 -11 -44 -241 -74 -313 -39 -94 -39 -118 1 -154 35 -32 35 -32 18 -50 -6
-7 -32 -37 -56 -66 -24 -29 -48 -51 -53 -50 -6 2 -25 44 -43 93 -18 50 -49
126 -70 169 l-38 80 6 109 c4 59 12 126 18 147 11 35 9 43 -25 110 -43 87 -44
101 -12 291 13 79 27 179 31 222 8 90 15 98 109 122 73 19 132 19 187 0 41
-15 46 -14 104 9 148 61 317 82 505 61 69 -8 175 -19 235 -26 l110 -12 160 42
c169 43 222 46 269 15z m-1497 -746 c-3 -8 -6 -5 -6 6 -1 11 2 17 5 13 3 -3 4
-12 1 -19z m-1842 -381 c28 -23 76 -62 105 -87 29 -25 85 -72 124 -105 39 -33
118 -100 176 -149 58 -49 116 -98 130 -110 75 -63 156 -132 160 -136 3 -3 57
-48 120 -101 101 -85 371 -313 440 -372 14 -12 66 -56 115 -97 49 -41 99 -83
110 -94 11 -10 30 -25 43 -33 39 -27 35 -30 -123 -88 -55 -20 -153 -59 -219
-86 -65 -28 -121 -48 -124 -45 -3 3 -12 0 -20 -6 -19 -16 -53 -36 -74 -44 -10
-3 -18 -11 -18 -18 0 -6 -4 -4 -10 4 -8 12 -10 12 -16 -3 -4 -10 -32 -44 -63
-76 -78 -80 -101 -109 -101 -126 0 -9 -10 -32 -23 -53 -13 -20 -26 -44 -29
-53 -9 -24 -170 -273 -181 -281 -6 -3 -42 22 -81 55 -40 34 -96 83 -126 108
-30 25 -145 122 -255 215 -110 93 -211 179 -224 189 -13 11 -57 48 -97 83 -40
34 -78 62 -83 62 -22 0 -23 57 -7 233 23 246 33 317 48 334 7 8 15 38 19 67 6
46 24 141 50 266 6 25 12 57 16 72 5 26 7 27 26 13 36 -25 39 -17 7 15 -25 24
-29 35 -24 57 17 73 117 380 136 416 5 9 11 17 15 17 3 0 29 -19 58 -43z
m1924 -61 c6 -7 9 -20 5 -29 -3 -10 2 -18 15 -22 26 -8 28 -25 3 -25 -29 0
-65 44 -57 69 7 24 18 27 34 7z m1420 -62 c-27 -163 -29 -408 -3 -640 l7 -61
-84 -85 c-85 -85 -190 -163 -286 -212 -29 -14 -53 -23 -53 -18 0 4 11 23 24
43 47 69 66 177 66 384 0 17 26 -29 45 -77 10 -27 21 -48 25 -48 8 0 20 107
20 180 0 52 14 84 23 54 3 -11 9 -36 13 -57 3 -20 10 -39 14 -42 7 -4 27 135
33 230 2 38 3 39 14 15 6 -14 14 -34 18 -45 7 -19 8 -19 17 5 20 47 22 230 4
308 -19 85 -19 82 -3 82 6 0 35 11 62 24 28 13 51 22 52 21 2 0 -2 -28 -8 -61z
m-1203 -63 c80 -8 99 -14 148 -45 31 -19 84 -50 118 -68 45 -23 58 -33 44 -36
-19 -4 -51 9 -98 41 -23 15 -28 16 -28 3 0 -8 5 -18 10 -21 6 -3 10 -11 10
-17 0 -6 -15 1 -32 14 -55 41 -61 43 -53 18 6 -19 5 -20 -12 -11 -10 5 -31 22
-46 36 -35 33 -44 27 -22 -14 8 -17 13 -31 9 -31 -9 0 -65 40 -96 68 l-26 24
-24 -36 c-26 -37 -38 -38 -38 -2 0 16 -5 13 -25 -17 -28 -40 -50 -50 -40 -17
10 31 -7 24 -39 -16 -29 -37 -81 -74 -104 -74 -12 0 61 89 150 183 33 34 42
39 70 33 18 -3 74 -10 124 -15z m80 -218 c38 -12 108 -27 157 -33 63 -9 87
-16 87 -26 0 -26 -49 -112 -76 -133 -61 -48 -146 -33 -152 27 -2 18 1 32 7 32
19 0 12 27 -15 54 -23 22 -35 26 -85 26 -47 0 -63 -5 -88 -26 -19 -16 -31 -34
-30 -48 4 -45 -1 -66 -17 -66 -17 0 -124 102 -124 119 0 5 24 20 53 34 28 13
73 42 100 65 l47 41 34 -23 c18 -12 64 -32 102 -43z m698 -158 c-4 -8 -10 -15
-15 -15 -16 0 -41 49 -34 67 6 16 9 15 30 -10 14 -15 22 -34 19 -42z m-85 -44
c22 -20 31 -38 31 -60 0 -17 -4 -31 -8 -31 -12 0 -37 30 -56 67 -30 60 -16 70
33 24z m-46 -74 c19 -23 31 -51 34 -81 7 -63 -16 -62 -41 2 -11 26 -32 66 -47
89 -15 23 -25 44 -21 47 8 9 43 -17 75 -57z m638 53 c23 -13 24 -38 2 -69 -16
-23 -17 -23 -24 -5 -9 23 -11 84 -3 84 3 0 14 -5 25 -10z m-740 -89 c28 -29
38 -64 20 -76 -13 -8 -39 21 -56 62 -18 42 -18 43 -4 43 6 0 24 -13 40 -29z
m-799 -68 c-3 -50 -8 -73 -17 -73 -31 0 -34 86 -4 124 12 15 22 26 24 24 1 -2
0 -36 -3 -75z m1753 -26 c17 -14 82 -69 145 -122 63 -54 131 -112 151 -129 20
-17 77 -65 127 -106 50 -41 91 -80 92 -85 0 -6 -20 -30 -44 -54 l-43 -42 -109
55 c-60 30 -163 80 -229 111 -66 30 -136 63 -155 73 l-35 18 4 170 c2 93 6
173 8 177 3 5 17 -2 32 -16 14 -13 40 -36 56 -50z m-1650 -34 c5 -22 7 -21 48
17 23 22 45 40 49 40 5 0 8 -13 8 -30 0 -16 15 -71 34 -122 35 -95 53 -188 41
-208 -4 -6 -27 29 -51 79 -60 121 -69 127 -84 57 -6 -31 -16 -56 -21 -56 -5 0
-16 15 -23 33 -8 17 -22 50 -31 71 -20 46 -17 156 6 196 14 25 14 25 17 -15 1
-22 5 -50 7 -62z m610 43 c25 -33 32 -56 17 -56 -4 0 -13 5 -20 12 -9 9 -12 2
-12 -32 0 -77 -39 -190 -66 -190 -7 0 -11 6 -8 14 5 14 -42 193 -55 211 -14
18 -20 45 -11 45 6 0 28 -16 49 -35 46 -42 56 -35 46 36 -7 49 -6 50 14 40 11
-6 32 -26 46 -45z m-347 -131 c36 -72 50 -140 39 -195 l-9 -45 -28 75 c-15 41
-37 97 -49 123 -12 28 -21 69 -21 95 l1 47 20 -25 c12 -14 33 -47 47 -75z
m1204 -89 c-27 -336 -62 -892 -62 -990 0 -71 -1 -73 -40 -111 -22 -21 -43 -35
-47 -31 -12 12 -6 465 7 580 26 228 51 369 101 576 48 194 58 188 41 -24z
m-1074 110 c27 -30 42 -56 47 -85 9 -53 -2 -134 -18 -128 -6 2 -21 45 -34 96
-12 51 -29 107 -38 124 -18 35 -18 37 -6 37 5 0 27 -20 49 -44z m987 -23 c-3
-10 -13 -49 -21 -88 -14 -68 -17 -72 -102 -158 -102 -103 -237 -208 -339 -263
l-73 -39 0 -57 c0 -76 -19 -142 -50 -180 -37 -45 -50 -34 -34 27 20 77 18 168
-5 196 -46 56 -193 12 -400 -121 -43 -28 -80 -50 -83 -50 -2 0 6 30 18 68 13
37 24 88 24 113 l0 46 68 7 c280 29 698 232 924 451 71 68 85 77 73 48z
m-1545 -45 c0 -5 -4 -8 -10 -8 -5 0 -10 10 -10 23 0 18 2 19 10 7 5 -8 10 -18
10 -22z m2384 -405 c-141 -235 -241 -367 -404 -537 -173 -179 -434 -403 -748
-641 l-143 -108 8 -46 c9 -60 8 -90 -6 -104 -8 -8 -11 2 -11 35 0 61 -48 133
-110 165 -58 30 -129 27 -165 -7 -35 -32 -34 -2 0 32 45 46 126 50 202 12 l52
-27 88 74 c244 205 564 510 839 799 212 224 402 427 434 464 59 67 44 22 -36
-111z m-381 35 c86 -44 157 -84 157 -89 0 -6 -58 -72 -129 -147 -148 -157
-189 -197 -195 -191 -3 3 -10 77 -15 164 -6 88 -13 204 -17 259 l-7 98 24 -7
c13 -4 95 -44 182 -87z m-1807 -55 c20 -13 24 -22 20 -42 -3 -14 -13 -62 -21
-105 -8 -43 -16 -81 -18 -83 -19 -19 -78 302 -60 330 3 5 17 -11 30 -36 13
-26 35 -54 49 -64z m2479 -132 c88 -74 162 -138 165 -141 3 -3 46 -39 95 -80
50 -41 92 -77 95 -80 3 -3 76 -65 162 -138 86 -73 160 -137 163 -142 14 -22
-66 -480 -91 -517 -7 -12 -14 -33 -14 -46 0 -13 -3 -27 -7 -31 -5 -4 -18 -49
-30 -99 l-21 -92 -3 125 c-3 149 -2 147 -12 156 -4 4 -7 19 -7 32 0 14 -4 39
-9 56 -5 17 -15 67 -21 111 -17 121 -57 276 -99 379 -89 222 -198 338 -496
530 -49 32 -92 60 -94 62 -9 8 42 64 52 57 7 -4 84 -68 172 -142z m-1229 92
c-22 -145 -28 -245 -33 -500 l-5 -283 -96 -91 c-53 -50 -125 -112 -160 -136
-61 -44 -64 -45 -105 -35 -122 32 -200 37 -535 37 l-344 -1 7 81 c6 74 26 203
43 284 7 34 9 35 77 47 39 7 75 13 81 13 6 1 17 -14 24 -31 31 -80 161 -174
271 -198 206 -45 349 132 281 347 -23 73 -26 67 78 148 41 33 77 61 80 64 3 4
39 35 80 71 41 35 113 101 160 147 47 45 89 83 94 83 5 0 6 -21 2 -47z m-1799
-40 c-99 -157 -271 -598 -362 -927 -9 -33 -20 -55 -25 -50 -11 11 -40 238 -40
312 0 32 -4 63 -8 70 -10 15 -32 -166 -32 -258 0 -72 26 -306 36 -321 8 -14
-38 -189 -51 -189 -6 0 -35 7 -65 15 -235 65 -305 71 -380 33 -40 -21 -45 -27
-48 -61 -4 -47 27 -91 95 -138 l46 -32 -76 -18 c-140 -33 -190 -73 -167 -130
11 -27 10 -31 -14 -50 -14 -11 -29 -35 -34 -52 -8 -30 -12 -32 -64 -39 -31 -4
-82 -16 -114 -27 -31 -12 -59 -19 -62 -17 -14 15 141 467 218 633 17 35 30 66
30 68 0 21 258 537 264 527 3 -5 -4 -57 -14 -117 -19 -101 -27 -215 -15 -203
3 3 19 58 35 122 106 425 255 646 517 768 75 36 309 117 336 118 15 0 15 -4
-6 -37z m-1818 -130 c-1 -132 -3 -148 -10 -98 -8 54 -2 255 7 255 2 0 3 -71 3
-157z m4759 -40 c85 -54 174 -127 221 -183 53 -63 111 -158 111 -181 0 -17 -4
-16 -47 3 -142 63 -286 64 -428 4 -55 -23 -153 -88 -160 -105 -4 -10 -2 -11 7
-4 18 15 123 53 188 69 72 17 231 17 297 0 123 -33 203 -96 229 -181 8 -27 24
-102 36 -165 20 -103 22 -147 22 -435 0 -249 -4 -349 -18 -450 -29 -217 -61
-389 -98 -525 -11 -41 -23 -88 -28 -105 -25 -96 -113 -329 -131 -349 -13 -15
-18 -5 -43 85 -94 338 -285 603 -526 730 -107 56 -224 88 -325 89 l-60 0 25
20 c39 30 126 70 181 83 56 13 64 27 16 27 -50 0 -145 -27 -211 -61 -32 -16
-61 -27 -64 -25 -3 3 0 31 7 63 6 32 23 117 37 188 58 295 133 544 208 690 24
47 40 85 35 85 -25 0 -174 -240 -204 -330 -8 -23 -8 -22 -12 13 -7 69 48 271
106 385 17 34 31 65 31 69 0 19 -65 -69 -88 -119 -15 -32 -30 -58 -34 -58 -3
0 -8 37 -10 82 l-3 82 92 95 c109 114 235 264 351 419 l84 112 77 -42 c42 -23
100 -56 129 -75z m-3011 -150 c-79 -210 -203 -654 -282 -1013 -19 -82 -29
-100 -46 -83 -8 8 -3 53 20 170 33 161 65 304 82 358 5 17 23 77 40 135 28 95
76 234 99 285 5 11 21 47 35 80 47 109 50 115 57 115 5 0 8 8 8 17 0 9 3 14 6
10 3 -3 -5 -36 -19 -74z m-1687 -219 c14 -12 63 -54 110 -94 47 -40 94 -79
105 -89 46 -38 280 -236 285 -241 3 -3 26 -22 53 -43 26 -21 47 -45 47 -52 0
-8 -17 -51 -38 -97 -22 -46 -61 -137 -87 -203 -27 -66 -57 -127 -67 -136 -10
-9 -18 -26 -18 -38 0 -11 -4 -21 -8 -21 -4 0 -14 -21 -20 -47 -10 -36 -15 -44
-22 -33 -6 10 -7 2 -3 -22 4 -25 2 -38 -6 -38 -6 0 -11 -9 -11 -20 0 -11 -4
-28 -9 -38 -13 -25 -28 -63 -39 -97 l-10 -30 -1 27 c-1 15 -5 30 -11 33 -5 3
-10 13 -10 22 0 8 -7 31 -16 51 -25 58 -30 72 -59 162 -14 47 -30 94 -35 105
-5 11 -11 31 -13 45 -11 55 -51 197 -63 225 -29 68 -35 93 -63 258 -26 154
-40 251 -55 398 -8 69 -3 70 64 13z m1890 -168 c29 -48 80 -70 145 -63 66 7
105 27 167 84 52 50 55 47 34 -42 -8 -33 -18 -94 -22 -135 -11 -117 -11 -117
-96 -125 -40 -4 -131 -16 -203 -26 -235 -36 -215 -35 -215 -9 0 45 80 321 133
454 11 29 11 28 23 -37 7 -38 22 -83 34 -101z m1767 -254 c-3 -16 -9 -112 -13
-214 l-7 -186 41 -26 c55 -34 90 -96 97 -171 l6 -60 -27 62 c-15 38 -41 76
-64 97 -40 36 -108 61 -141 53 -35 -9 -20 21 16 33 l35 12 0 187 c0 175 1 190
21 215 27 34 43 34 36 -2z m-603 -233 c35 -28 33 -52 -10 -111 -45 -61 -63
-109 -64 -170 l0 -48 -46 0 c-25 0 -55 -5 -66 -11 -12 -7 -48 -18 -81 -25 -32
-8 -66 -21 -75 -30 -15 -15 -15 -16 3 -11 63 19 163 27 233 18 142 -18 285
-21 377 -9 50 6 118 12 153 12 34 1 62 4 62 8 0 3 -8 20 -17 38 -17 30 -17 32
1 45 23 18 69 19 98 4 11 -6 29 -31 40 -56 21 -47 19 -71 -9 -131 -12 -26 -18
-30 -29 -21 -8 6 -14 20 -14 30 0 11 -4 19 -10 19 -6 0 -10 -27 -10 -62 0 -73
-17 -98 -65 -98 -58 0 -235 -84 -235 -111 0 -21 79 -7 153 28 90 42 107 39
121 -23 4 -21 11 -46 14 -54 7 -20 24 69 18 95 -6 23 28 74 41 62 4 -5 8 -42
8 -82 0 -89 -11 -103 -118 -160 -121 -64 -227 -139 -214 -151 2 -2 43 14 91
36 47 22 91 40 97 40 13 0 2 -57 -17 -87 -8 -12 -40 -40 -71 -62 -121 -84
-149 -118 -64 -80 24 11 46 17 48 15 5 -5 -102 -111 -133 -132 -17 -11 -69
-12 -320 -4 -164 6 -326 14 -359 19 -54 9 -64 14 -103 58 -143 160 -212 344
-184 495 11 60 15 66 89 138 43 41 111 101 151 132 76 61 122 117 172 210 43
81 73 112 154 167 39 27 78 56 85 65 19 22 73 20 105 -5z m-2009 -165 c159
-28 148 -24 141 -50 -3 -13 -9 -36 -12 -51 l-7 -28 31 28 c16 16 37 27 45 25
16 -3 199 -244 275 -360 58 -89 43 -114 -38 -63 -50 31 -62 32 -54 1 l6 -24
-175 -7 c-150 -6 -185 -5 -244 10 -37 10 -122 25 -188 34 -106 15 -120 19
-120 36 0 28 46 35 208 34 l138 -2 74 -38 c80 -42 117 -51 95 -24 -7 9 -49 43
-94 77 l-80 60 -161 -3 c-158 -4 -160 -4 -163 18 -4 25 13 36 83 52 68 16 213
29 226 20 7 -4 8 -12 5 -18 -12 -19 10 -12 29 9 10 11 23 20 30 20 6 0 63 -37
126 -83 140 -101 145 -104 134 -86 -19 32 -85 107 -152 174 -64 64 -78 73
-130 84 -129 29 -193 57 -218 95 -20 31 -10 54 29 65 45 13 61 13 161 -5z
m1178 -592 c-3 -43 -1 -83 7 -106 6 -21 9 -40 6 -43 -11 -11 -18 5 -30 64 -14
70 -33 77 -102 39 -56 -31 -54 -31 -54 -7 0 32 48 79 103 100 78 30 77 30 70
-47z m-1361 47 l52 -12 -91 -27 c-109 -32 -182 -74 -269 -154 -131 -119 -227
-292 -275 -496 -8 -31 -13 -110 -13 -180 1 -128 23 -239 61 -297 26 -40 9 -49
-26 -12 -50 51 -78 100 -108 186 -24 71 -26 91 -26 233 0 139 2 164 27 243 30
100 63 170 112 240 19 26 34 50 34 54 0 16 -74 -67 -118 -131 -47 -68 -47 -68
-50 -37 -7 73 62 209 138 270 61 49 165 98 245 114 85 19 235 21 307 6z
m-1090 -33 c82 -20 141 -51 182 -97 42 -46 48 -95 16 -124 -24 -21 -95 -30
-132 -16 l-27 10 19 43 c24 53 14 73 -51 105 -87 44 -149 23 -149 -51 0 -63
-11 -136 -21 -136 -21 0 -85 79 -97 117 -35 118 90 189 260 149z m6072 -11
c84 -40 87 -143 5 -223 -52 -51 -59 -44 -59 52 0 91 -9 110 -56 122 -54 14
-164 -40 -164 -80 0 -9 8 -31 17 -51 9 -19 13 -38 9 -42 -4 -5 -37 -8 -73 -8
-57 0 -67 3 -85 25 -73 91 124 236 308 226 33 -2 77 -11 98 -21z m-1734 -12
c128 -36 251 -115 366 -234 322 -337 438 -852 222 -993 l-26 -17 -6 78 c-10
128 -26 213 -58 308 -31 92 -87 209 -96 200 -3 -2 7 -40 21 -82 56 -169 61
-199 61 -373 0 -187 -10 -220 -81 -279 -44 -37 -68 -39 -77 -8 -6 20 -7 20
-17 4 -13 -22 -61 -47 -93 -47 -14 0 -37 10 -51 23 -24 20 -25 25 -14 56 10
29 9 35 -5 43 -9 5 -16 22 -16 40 0 101 -115 462 -206 646 -77 156 -153 256
-247 327 -66 49 -100 96 -90 122 10 26 114 6 221 -42 39 -19 72 -32 72 -29 0
19 -138 126 -191 148 -23 10 -27 15 -17 23 35 28 216 -42 344 -133 68 -49 199
-181 216 -219 16 -36 31 -31 22 8 -27 123 -143 255 -284 324 -47 22 -116 51
-155 64 -84 27 -77 23 -69 42 3 9 18 18 32 20 44 7 163 -4 222 -20z m-2240
-32 l125 -6 -3 -45 c-2 -25 3 -63 11 -86 13 -35 13 -48 1 -93 -26 -100 19
-210 95 -236 23 -8 40 -24 59 -59 19 -35 23 -50 15 -53 -7 -3 -144 -92 -305
-200 -614 -409 -763 -477 -1048 -478 -134 0 -222 20 -300 68 l-35 22 115 7
c124 7 171 17 178 36 2 8 -14 12 -55 12 -121 0 -302 50 -323 90 -46 85 -61
400 -26 515 88 284 304 456 646 515 55 9 603 4 850 -9z m-2085 -67 c38 -35 20
-54 -28 -30 -43 20 -47 20 -47 1 0 -20 -26 -19 -34 1 -16 42 -8 54 38 54 32 0
50 -6 71 -26z m5961 15 c7 -12 -15 -59 -28 -59 -4 0 -8 7 -8 15 0 19 -17 19
-50 0 -34 -19 -50 -18 -50 3 0 37 116 73 136 41z m-6238 -115 c11 -22 37 -53
56 -68 73 -56 140 -72 351 -86 76 -6 142 -13 146 -18 4 -4 11 -40 15 -81 l7
-75 -29 23 c-44 35 -91 51 -149 51 -83 0 -133 -27 -165 -89 -8 -15 -15 -100
-20 -231 -10 -254 -37 -467 -60 -480 -23 -12 -127 13 -198 48 -80 38 -157 115
-172 171 -17 65 -6 100 54 170 63 73 122 185 138 264 10 46 9 83 -8 214 -20
163 -21 214 -9 261 l8 27 7 -30 c4 -16 16 -48 28 -71z m6452 8 c0 -37 -7 -107
-15 -157 -21 -127 -19 -243 4 -310 23 -66 77 -155 127 -210 42 -46 54 -73 54
-121 0 -79 -61 -155 -169 -213 -61 -32 -181 -64 -206 -55 -7 3 -15 20 -18 37
-17 99 -37 316 -45 483 -10 216 -14 227 -90 265 -34 17 -56 20 -107 17 -57 -3
-72 -9 -132 -51 -37 -25 -86 -64 -108 -85 -49 -47 -142 -112 -161 -112 -24 0
-15 40 14 68 16 15 74 65 130 111 56 46 102 87 102 91 0 9 -108 -14 -152 -31
-38 -15 -46 -9 -36 27 6 25 16 33 50 44 58 17 229 39 308 40 88 0 233 27 286
52 64 30 113 91 138 171 12 37 26 4 26 -61z m-6167 10 c-9 -22 -57 -11 -61 14
-3 20 -1 21 31 11 23 -7 33 -16 30 -25z m5895 11 c-2 -12 -13 -18 -32 -18 -36
0 -46 22 -14 28 44 8 49 7 46 -10z m-5913 -69 c27 -7 74 -14 107 -14 62 0 70
-8 43 -44 -12 -16 -26 -19 -75 -17 -70 2 -169 26 -188 45 -10 10 -12 27 -7 60
l7 48 33 -32 c18 -17 54 -38 80 -46z m5987 26 c3 -19 3 -41 1 -47 -7 -19 -122
-51 -194 -54 -62 -3 -64 -2 -82 29 l-19 32 56 0 c91 0 153 18 189 55 36 37 42
35 49 -15z m-3541 -3 c40 -27 63 -85 54 -136 -8 -41 -64 -101 -94 -101 -112 0
-152 182 -53 242 36 23 53 22 93 -5z m3066 -19 c-3 -8 -6 -5 -6 6 -1 11 2 17
5 13 3 -3 4 -12 1 -19z m-1674 -99 c263 -133 487 -582 514 -1030 l6 -106 -38
-26 c-21 -14 -41 -24 -45 -22 -4 2 -5 29 -2 60 2 30 2 55 0 55 -3 0 -33 -34
-67 -75 -92 -110 -83 -105 -164 -105 -181 0 -433 52 -603 123 -66 28 -358 168
-538 258 -296 148 -404 267 -414 455 l-4 81 56 6 c63 6 166 56 196 95 18 23
22 23 67 13 86 -20 264 -31 488 -31 l220 0 45 37 c25 21 85 81 133 135 49 54
93 98 98 98 6 0 29 -10 52 -21z m-3601 -195 c52 -26 78 -55 78 -85 0 -39 -15
-44 -44 -14 -30 30 -101 64 -132 65 -60 0 -18 -85 94 -197 64 -64 84 -90 89
-118 4 -23 2 -35 -6 -35 -6 0 -58 46 -115 103 -163 160 -199 263 -106 300 24
10 106 -1 142 -19z m5563 6 c26 -21 18 -89 -16 -150 -56 -98 -277 -288 -391
-338 -27 -11 -28 -11 -59 51 -17 34 -42 77 -56 95 -28 37 -25 79 5 88 77 25
151 73 221 143 83 84 111 104 162 120 42 13 114 8 134 -9z m83 -650 c30 -153
66 -247 141 -369 76 -126 72 -150 -51 -274 -106 -106 -164 -154 -293 -242
-351 -239 -854 -433 -1425 -549 -220 -44 -391 -69 -755 -108 -162 -17 -988
-17 -1135 0 -58 7 -148 17 -200 23 -213 23 -312 39 -565 89 -750 148 -1402
453 -1735 813 -93 101 -96 127 -28 242 63 104 74 126 93 180 56 163 70 271 68
528 -1 119 2 217 7 217 5 0 20 -25 34 -56 31 -67 120 -162 226 -240 65 -47 81
-65 96 -103 24 -65 74 -140 119 -180 42 -36 133 -81 166 -81 11 0 32 -6 47
-14 15 -7 50 -21 77 -31 129 -44 159 -49 325 -51 133 -1 180 -5 240 -22 97
-28 222 -56 335 -77 50 -9 110 -20 135 -25 66 -13 230 -37 345 -49 55 -6 145
-16 200 -23 65 -8 283 -12 620 -13 286 0 525 -3 530 -7 18 -11 199 -56 272
-67 99 -15 281 -13 383 3 98 16 128 27 170 58 27 19 34 21 63 10 19 -7 65 -12
103 -12 56 0 81 6 129 29 33 16 83 39 112 51 60 26 116 78 144 132 13 26 33
44 63 59 24 11 62 40 85 64 30 32 78 62 183 114 347 171 555 335 630 496 l23
50 6 -255 c4 -140 11 -280 17 -310z m-3743 240 c-3 -5 0 -7 8 -4 8 3 37 -6 66
-19 41 -19 49 -26 38 -36 -10 -11 -8 -12 12 -6 20 6 94 -17 111 -35 3 -3 37
-21 75 -41 145 -76 180 -94 185 -99 3 -3 14 -10 25 -16 56 -30 91 -50 95 -54
9 -9 85 -51 103 -57 9 -3 17 -9 17 -14 0 -5 5 -9 11 -9 5 0 27 -11 47 -25 20
-14 45 -25 54 -25 10 0 18 -3 18 -7 0 -5 19 -17 42 -28 l42 -20 -255 -3 c-140
-2 -310 1 -379 7 -316 26 -399 34 -455 42 -33 5 -91 12 -130 17 -72 9 -162 26
-226 43 -20 5 -47 9 -61 9 -14 0 -27 3 -31 6 -11 11 5 34 23 34 10 0 20 3 22
8 2 4 33 22 70 40 37 18 74 38 81 45 19 18 50 37 70 43 9 4 17 10 17 15 0 5 7
9 15 9 8 0 15 3 15 8 0 4 14 13 30 20 17 8 36 19 43 25 22 22 86 67 93 67 4 0
14 8 23 18 29 31 101 67 86 42z m3035 -85 c0 -8 -9 -15 -20 -15 -13 0 -18 5
-14 15 4 8 12 15 20 15 8 0 14 -7 14 -15z"/>
<path d="M4870 10205 c-14 -16 -3 -20 19 -6 8 5 9 11 3 15 -5 3 -15 -1 -22 -9z"/>
<path d="M4930 10170 c0 -5 5 -10 11 -10 5 0 7 5 4 10 -3 6 -8 10 -11 10 -2 0
-4 -4 -4 -10z"/>
<path d="M4440 10091 c0 -5 7 -12 16 -15 14 -5 15 -4 4 9 -14 17 -20 19 -20 6z"/>
<path d="M5154 9985 c8 -8 17 -15 20 -15 3 0 3 7 0 15 -4 8 -13 15 -21 15 -12
0 -12 -2 1 -15z"/>
<path d="M5210 9936 c0 -2 7 -9 15 -16 9 -7 15 -8 15 -2 0 5 -7 12 -15 16 -8
3 -15 4 -15 2z"/>
<path d="M6287 9029 c7 -7 15 -10 18 -7 3 3 -2 9 -12 12 -14 6 -15 5 -6 -5z"/>
<path d="M6110 8675 c7 -8 17 -15 22 -15 5 0 3 7 -6 15 -8 8 -18 15 -22 15 -3
0 -1 -7 6 -15z"/>
<path d="M6810 8586 c0 -2 7 -9 15 -16 9 -7 15 -8 15 -2 0 5 -7 12 -15 16 -8
3 -15 4 -15 2z"/>
<path d="M6860 8540 c0 -6 7 -10 15 -10 8 0 15 2 15 4 0 2 -7 6 -15 10 -8 3
-15 1 -15 -4z"/>
<path d="M6900 8510 c0 -5 5 -10 11 -10 5 0 7 5 4 10 -3 6 -8 10 -11 10 -2 0
-4 -4 -4 -10z"/>
<path d="M6390 8436 c0 -2 7 -7 16 -10 8 -3 12 -2 9 4 -6 10 -25 14 -25 6z"/>
<path d="M6440 8399 c0 -5 5 -7 10 -4 6 3 10 8 10 11 0 2 -4 4 -10 4 -5 0 -10
-5 -10 -11z"/>
<path d="M6558 8293 c7 -3 16 -2 19 1 4 3 -2 6 -13 5 -11 0 -14 -3 -6 -6z"/>
<path d="M7219 8237 c14 -15 29 -27 33 -27 10 0 -5 16 -37 40 -15 10 -14 7 4
-13z"/>
<path d="M6665 8200 c3 -5 11 -10 16 -10 6 0 7 5 4 10 -3 6 -11 10 -16 10 -6
0 -7 -4 -4 -10z"/>
<path d="M6736 8146 c3 -8 13 -17 22 -21 13 -5 13 -2 -3 15 -21 24 -26 25 -19
6z"/>
<path d="M7332 8144 c10 -10 20 -16 22 -13 3 3 -5 11 -17 18 -21 13 -21 12 -5
-5z"/>
<path d="M6830 8066 c0 -2 7 -7 16 -10 8 -3 12 -2 9 4 -6 10 -25 14 -25 6z"/>
<path d="M6882 8024 c10 -10 20 -16 22 -13 3 3 -5 11 -17 18 -21 13 -21 12 -5
-5z"/>
<path d="M6935 7980 c21 -24 26 -25 19 -6 -3 8 -13 17 -22 21 -13 5 -13 2 3
-15z"/>
<path d="M7531 7964 c0 -11 3 -14 6 -6 3 7 2 16 -1 19 -3 4 -6 -2 -5 -13z"/>
<path d="M6982 7936 c7 -8 15 -12 17 -11 5 6 -10 25 -20 25 -5 0 -4 -6 3 -14z"/>
<path d="M7525 7480 c3 -5 8 -10 11 -10 2 0 4 5 4 10 0 6 -5 10 -11 10 -5 0
-7 -4 -4 -10z"/>
<path d="M7647 7374 c6 -15 23 -19 23 -5 0 5 -7 11 -14 14 -10 4 -13 1 -9 -9z"/>
<path d="M3146 8916 c10 -8 21 -12 24 -10 5 6 -21 24 -34 24 -6 0 -1 -6 10
-14z"/>
<path d="M3187 8884 c3 -7 9 -14 14 -14 14 0 10 17 -5 23 -10 4 -13 1 -9 -9z"/>
<path d="M3210 8856 c0 -2 7 -7 16 -10 8 -3 12 -2 9 4 -6 10 -25 14 -25 6z"/>
<path d="M3820 8845 c7 -8 17 -15 22 -15 5 0 3 7 -6 15 -8 8 -18 15 -22 15 -3
0 -1 -7 6 -15z"/>
<path d="M3860 8811 c0 -5 7 -12 16 -15 14 -5 15 -4 4 9 -14 17 -20 19 -20 6z"/>
<path d="M3370 8720 c0 -6 7 -10 15 -10 8 0 15 2 15 4 0 2 -7 6 -15 10 -8 3
-15 1 -15 -4z"/>
<path d="M3802 8356 c7 -8 15 -12 17 -11 5 6 -10 25 -20 25 -5 0 -4 -6 3 -14z"/>
<path d="M4915 8910 c-16 -5 -72 -13 -123 -19 -51 -5 -98 -14 -105 -18 -6 -4
-19 -8 -27 -8 -10 0 -16 -12 -18 -35 -2 -37 15 -76 25 -52 9 23 57 40 133 47
41 4 102 14 135 22 33 9 92 19 130 22 l70 6 -40 19 c-45 22 -134 30 -180 16z"/>
<path d="M4849 8797 c-33 -15 -59 -37 -59 -49 0 -6 7 -5 15 2 23 19 28 6 11
-29 -22 -41 -20 -61 4 -61 14 0 20 7 20 23 0 24 27 57 47 57 6 0 14 -11 17
-25 4 -14 14 -25 22 -25 11 0 14 -5 10 -16 -6 -15 2 -16 61 -12 62 5 142 33
143 50 0 3 -16 20 -35 35 -65 54 -192 78 -256 50z m101 -61 c0 -3 -4 -8 -10
-11 -5 -3 -10 -1 -10 4 0 6 5 11 10 11 6 0 10 -2 10 -4z"/>
<path d="M5580 8787 c0 -15 48 -87 58 -87 20 0 31 24 20 44 -21 41 -78 73 -78
43z"/>
<path d="M4680 8681 c0 -32 14 -49 25 -31 9 15 -3 60 -15 60 -6 0 -10 -13 -10
-29z"/>
<path d="M5832 8690 c-42 -26 -82 -107 -83 -169 -2 -59 8 -79 25 -56 11 15 14
15 24 2 17 -20 8 -38 -32 -64 -33 -21 -55 -63 -33 -63 23 1 92 56 106 84 11
25 11 33 -5 68 -20 44 -21 83 -2 106 10 12 15 11 30 -8 10 -12 18 -28 18 -35
0 -7 7 -18 15 -25 13 -11 15 -7 15 28 0 29 -7 49 -26 71 -23 28 -24 32 -10 47
19 19 20 20 2 27 -7 3 -27 -3 -44 -13z"/>
<path d="M5055 8630 c-64 -23 -74 -46 -16 -36 46 7 78 23 85 43 7 17 -8 15
-69 -7z"/>
<path d="M4260 8570 c0 -13 41 -30 54 -22 11 6 -22 32 -41 32 -7 0 -13 -5 -13
-10z"/>
<path d="M4550 8308 c-41 -9 -43 -11 -25 -24 33 -24 95 -10 95 21 0 17 -6 17
-70 3z"/>
<path d="M4648 8220 c-35 -21 -20 -38 35 -42 59 -5 79 5 56 27 -19 20 -70 28
-91 15z"/>
<path d="M2784 7455 c8 -8 18 -15 22 -15 3 0 1 7 -6 15 -7 8 -17 15 -22 15 -5
0 -3 -7 6 -15z"/>
<path d="M2827 7419 c7 -7 15 -10 18 -7 3 3 -2 9 -12 12 -14 6 -15 5 -6 -5z"/>
<path d="M2320 7351 c0 -5 7 -11 15 -15 8 -3 15 -1 15 3 0 5 -7 11 -15 15 -8
3 -15 1 -15 -3z"/>
<path d="M2965 7300 c3 -5 8 -10 11 -10 2 0 4 5 4 10 0 6 -5 10 -11 10 -5 0
-7 -4 -4 -10z"/>
<path d="M2450 7248 c0 -10 40 -51 45 -46 3 2 -6 15 -20 28 -14 13 -25 21 -25
18z"/>
<path d="M2608 7113 c7 -3 16 -2 19 1 4 3 -2 6 -13 5 -11 0 -14 -3 -6 -6z"/>
<path d="M2661 7061 c18 -17 35 -28 37 -26 6 6 -49 55 -61 55 -5 0 5 -13 24
-29z"/>
<path d="M3275 7040 c3 -5 8 -10 11 -10 2 0 4 5 4 10 0 6 -5 10 -11 10 -5 0
-7 -4 -4 -10z"/>
<path d="M3366 6965 c4 -8 10 -15 15 -15 4 0 6 7 3 15 -4 8 -10 15 -15 15 -4
0 -6 -7 -3 -15z"/>
<path d="M3001 6766 c2 -2 15 -9 29 -15 24 -11 24 -11 6 3 -16 13 -49 24 -35
12z"/>
<path d="M3070 6730 c0 -5 5 -10 11 -10 5 0 7 5 4 10 -3 6 -8 10 -11 10 -2 0
-4 -4 -4 -10z"/>
<path d="M3207 6599 c7 -7 15 -10 18 -7 3 3 -2 9 -12 12 -14 6 -15 5 -6 -5z"/>
<path d="M3250 6561 c0 -5 7 -12 16 -15 14 -5 15 -4 4 9 -14 17 -20 19 -20 6z"/>
<path d="M5860 6015 c0 -8 7 -15 15 -15 8 0 15 7 15 15 0 8 -7 15 -15 15 -8 0
-15 -7 -15 -15z"/>
<path d="M7540 5702 c0 -13 27 -35 39 -30 5 1 -2 11 -15 21 -13 10 -24 14 -24
9z"/>
<path d="M4632 6047 c-61 -65 16 -182 86 -130 39 29 47 66 25 110 -15 32 -24
38 -53 41 -27 2 -41 -3 -58 -21z"/>
<path d="M5285 5036 c-18 -13 -17 -15 23 -27 33 -9 45 -10 54 -1 26 26 -45 52
-77 28z"/>
<path d="M5387 4916 c-30 -19 -58 -24 -145 -30 -109 -7 -181 -22 -217 -44 -17
-10 -11 -12 40 -10 33 2 110 -1 170 -6 126 -9 140 -3 183 73 27 47 22 50 -31
17z"/>
<path d="M5127 4657 c-38 -7 -65 -15 -61 -19 4 -5 39 -8 77 -8 38 0 110 -10
160 -21 l91 -22 23 27 c34 40 31 57 -9 49 -39 -9 -52 -9 -143 -1 -39 4 -100 1
-138 -5z"/>
<path d="M5574 3518 c-8 -13 82 -66 139 -83 55 -16 107 -11 145 13 22 14 2 40
-41 56 -43 16 -235 27 -243 14z"/>
<path d="M7695 4264 c-25 -9 -69 -44 -117 -92 -64 -64 -168 -140 -211 -155
-10 -3 36 -91 54 -103 32 -19 305 219 343 299 30 65 10 80 -69 51z"/>
<path d="M2090 3942 c0 -274 -55 -488 -177 -686 -36 -58 -40 -72 -31 -90 19
-37 89 -116 103 -116 14 0 121 248 170 395 37 111 55 235 55 370 l0 90 -60 53
-60 53 0 -69z"/>
<path d="M7754 3952 c-27 -26 -65 -60 -84 -75 l-33 -28 7 -102 c7 -118 39
-252 94 -398 43 -113 119 -270 149 -307 l19 -24 67 71 c37 39 67 79 67 89 0 9
-18 46 -40 82 -112 180 -157 337 -169 594 -3 79 -10 141 -16 142 -5 2 -33 -18
-61 -44z"/>
<path d="M2271 3768 c-23 -158 -54 -298 -88 -403 -36 -112 -105 -296 -123
-327 -15 -27 -12 -53 8 -71 27 -24 45 -21 60 11 91 194 148 424 181 734 11
100 8 128 -14 128 -9 0 -17 -25 -24 -72z"/>
<path d="M7527 3782 c-27 -16 -28 -19 -22 -72 8 -62 35 -181 64 -282 36 -125
188 -489 210 -502 5 -4 22 5 38 18 l28 25 -19 33 c-10 18 -26 47 -36 64 -80
140 -194 487 -215 654 -10 77 -14 82 -48 62z"/>
<path d="M2658 3393 c-43 -48 -67 -88 -153 -260 -86 -175 -119 -258 -113 -290
2 -12 45 -40 123 -80 169 -88 214 -106 265 -107 121 -2 185 143 130 294 -11
30 -20 55 -20 56 0 1 29 16 65 33 128 63 150 151 55 228 -29 24 -289 153 -307
153 -11 0 -31 -12 -45 -27z m203 -163 c43 -23 8 -76 -67 -100 -70 -24 -87 19
-30 76 35 35 63 42 97 24z m-111 -259 c30 -56 -12 -151 -66 -151 -69 0 -92 56
-54 130 19 38 23 40 65 40 34 0 47 -5 55 -19z"/>
<path d="M6996 3324 c-71 -91 -99 -168 -104 -294 -5 -125 10 -222 48 -305 35
-77 64 -108 93 -99 99 29 154 48 164 56 10 8 2 23 -32 60 -56 62 -64 91 -38
126 29 39 107 85 131 78 28 -9 33 -28 39 -133 7 -109 0 -105 123 -67 l83 26
-6 57 c-6 66 -39 184 -74 260 -72 159 -203 272 -332 288 l-49 6 -46 -59z m173
-166 c64 -66 54 -92 -44 -117 -56 -15 -55 -16 -55 33 0 65 24 125 51 126 4 0
25 -19 48 -42z"/>
<path d="M6720 3220 c-14 -4 -50 -13 -80 -20 -30 -7 -61 -17 -67 -23 -27 -21
-9 -169 52 -423 37 -155 60 -220 79 -227 17 -7 196 34 196 45 0 4 -20 61 -45
126 -55 147 -99 352 -92 439 5 73 -6 94 -43 83z"/>
<path d="M3369 3171 c-139 -38 -261 -143 -339 -292 -51 -98 -70 -159 -70 -225
0 -52 0 -52 43 -69 155 -62 163 -61 159 28 -5 88 10 113 74 123 53 8 119 -8
128 -31 8 -22 -5 -51 -58 -128 -25 -37 -46 -71 -46 -75 0 -12 178 -72 194 -66
19 7 61 98 98 209 38 116 48 251 24 343 -17 68 -70 160 -107 186 -28 19 -18
19 -100 -3z m45 -212 c10 -54 7 -85 -12 -102 -17 -15 -22 -15 -72 3 -29 11
-58 24 -63 29 -13 13 18 55 66 91 47 34 71 28 81 -21z"/>
<path d="M6158 3090 c-87 -15 -164 -33 -173 -40 -9 -8 -15 -29 -15 -59 1 -87
68 -509 93 -574 9 -26 13 -28 51 -22 107 15 166 28 166 36 0 4 -11 39 -25 77
-14 38 -25 88 -25 111 0 36 3 41 27 47 22 6 31 2 52 -24 29 -34 51 -73 80
-144 19 -44 23 -48 53 -47 18 0 62 6 98 13 47 9 66 17 68 29 2 10 -13 51 -33
92 -27 55 -52 89 -102 134 -64 59 -65 61 -49 83 62 86 70 101 73 151 5 68 -19
114 -77 144 -52 28 -64 28 -262 -7z m120 -116 c45 -31 18 -125 -47 -158 -15
-8 -33 -11 -40 -7 -16 10 -25 79 -17 126 10 51 60 70 104 39z"/>
<path d="M3694 3072 c-15 -10 -32 -64 -44 -147 -6 -38 -15 -97 -20 -130 -11
-65 -40 -329 -40 -357 0 -22 50 -35 145 -40 l70 -3 -4 93 c-4 101 11 142 49
142 31 0 56 -52 69 -147 7 -49 14 -93 16 -99 4 -13 110 -34 168 -34 l37 0 0
48 c0 83 -38 188 -94 265 l-21 29 30 22 c17 11 49 39 72 61 54 53 66 112 34
178 -29 59 -74 82 -186 96 -49 7 -121 16 -160 21 -85 11 -107 12 -121 2z m274
-167 c17 -36 -14 -85 -70 -115 -45 -23 -48 -24 -64 -8 -16 15 -16 23 -4 72 7
31 20 62 29 70 36 31 90 22 109 -19z"/>
<path d="M5547 3006 c-69 -57 -119 -132 -153 -232 -25 -70 -28 -94 -28 -214
-1 -125 1 -139 24 -185 l25 -50 95 4 c52 1 99 7 105 12 6 6 -2 31 -23 68 -18
32 -32 70 -32 83 0 60 144 126 180 82 11 -12 11 -31 2 -92 -6 -42 -14 -90 -18
-106 l-7 -29 99 6 c130 8 128 4 120 177 -3 74 -12 159 -21 189 -38 139 -113
247 -210 302 -69 40 -93 37 -158 -15z m145 -201 c32 -59 34 -71 11 -83 -25
-13 -119 -21 -135 -11 -14 9 0 57 34 116 29 48 56 41 90 -22z"/>
<path d="M4259 2979 c-23 -43 -29 -87 -40 -269 -11 -194 -5 -338 14 -364 10
-13 46 -17 192 -22 212 -8 251 -1 291 51 55 73 38 173 -46 269 l-50 57 45 54
c67 83 77 143 32 193 -36 39 -105 52 -273 52 -146 0 -154 -1 -165 -21z m269
-106 c6 -10 6 -27 2 -38 -13 -33 -76 -87 -96 -83 -28 6 -23 82 7 114 27 29 74
32 87 7z m-13 -270 c39 -38 45 -98 14 -137 -16 -20 -29 -26 -59 -26 -43 0 -53
11 -64 68 -9 50 2 78 37 96 41 20 52 20 72 -1z"/>
<path d="M4891 2973 c-39 -32 -53 -132 -54 -394 -2 -187 1 -239 12 -252 12
-15 38 -17 190 -17 186 0 281 7 281 21 0 16 -60 139 -68 139 -4 0 -25 -9 -47
-20 -59 -30 -120 -27 -156 9 -24 25 -29 38 -29 79 0 44 4 54 31 76 27 23 36
25 82 20 l52 -6 22 63 c15 43 19 67 12 74 -9 9 -34 9 -169 2 -34 -2 -35 -1
-33 32 1 22 11 43 27 60 23 23 35 26 89 26 34 -1 77 -4 94 -9 32 -8 33 -7 53
39 34 79 44 75 -174 75 -170 0 -196 -2 -215 -17z"/>
<path d="M7755 5030 c-3 -5 -1 -10 4 -10 6 0 11 5 11 10 0 6 -2 10 -4 10 -3 0
-8 -4 -11 -10z"/>
<path d="M8573 3850 c0 -41 2 -58 4 -37 2 20 2 54 0 75 -2 20 -4 3 -4 -38z"/>
<path d="M1333 3855 c0 -33 2 -45 4 -27 2 18 2 45 0 60 -2 15 -4 0 -4 -33z"/>
<path d="M4778 1913 c106 -2 277 -2 380 0 103 1 16 2 -193 2 -209 0 -293 -1
-187 -2z"/>
<path d="M375 1615 c-17 -9 -36 -24 -43 -36 -13 -21 -322 -1472 -322 -1512 0
-13 8 -31 18 -40 17 -15 56 -17 358 -17 360 0 430 7 513 49 40 21 41 21 41 2
0 -48 16 -51 264 -51 l233 0 27 26 c14 15 30 41 35 58 9 31 9 31 10 -11 2 -77
-22 -73 477 -73 279 0 452 4 464 10 13 7 21 7 25 0 4 -6 87 -10 218 -10 179 0
216 3 235 16 21 15 25 15 41 0 15 -14 60 -16 357 -16 372 0 434 7 525 57 28
15 69 48 91 73 l41 45 -7 -40 c-4 -22 -10 -51 -13 -65 -3 -16 2 -34 14 -48
l18 -22 569 0 c629 -1 602 -3 631 63 l14 32 1 -31 c0 -66 -12 -64 486 -64 311
0 453 3 461 11 8 8 13 8 17 0 5 -7 78 -11 220 -11 195 0 215 2 238 19 24 19
24 19 36 0 12 -18 29 -19 467 -19 l454 0 27 24 c16 13 33 39 40 57 l11 34 -1
-41 c-1 -74 -3 -74 256 -74 138 0 237 4 249 10 45 24 46 37 95 816 l46 748
-27 23 c-26 23 -29 23 -311 23 -312 0 -341 -4 -367 -57 -8 -15 -62 -171 -122
-346 -59 -175 -109 -316 -110 -315 -2 2 28 149 66 328 74 348 75 361 23 380
-14 6 -114 10 -222 10 -264 0 -264 0 -301 -173 -21 -95 -31 -118 -31 -71 0 44
-46 129 -88 164 -20 16 -57 37 -83 45 -61 20 -260 34 -494 35 -171 0 -193 -2
-222 -20 -17 -10 -36 -27 -42 -38 -5 -10 -45 -186 -88 -390 -43 -205 -79 -369
-80 -364 -2 4 8 174 21 377 13 214 19 380 15 393 -5 12 -20 27 -34 32 -15 6
-148 10 -308 10 -262 0 -284 -1 -314 -20 -17 -10 -36 -27 -41 -37 -5 -10 -56
-155 -113 -323 -91 -266 -104 -300 -107 -263 -4 61 -26 73 -130 73 l-84 0 7
48 c4 26 9 50 12 55 2 4 49 7 105 7 100 0 100 0 132 32 29 30 34 47 66 206
l35 174 -28 24 -28 24 -325 0 c-349 0 -377 -4 -407 -52 -9 -12 -28 -86 -44
-163 l-28 -140 -7 68 c-10 87 -39 148 -96 197 -80 71 -194 89 -550 90 -290 0
-290 0 -328 -184 l-18 -90 -11 45 c-31 120 -101 184 -230 209 -33 6 -184 14
-335 17 -248 5 -279 4 -312 -11 -22 -11 -42 -30 -51 -49 -8 -18 -48 -190 -88
-384 -41 -193 -75 -350 -77 -348 -3 2 6 166 18 364 12 198 20 371 16 384 -11
44 -41 48 -354 45 l-292 -3 -29 -30 c-23 -24 -55 -107 -161 -420 -73 -214
-137 -394 -141 -400 -5 -5 -9 -1 -9 12 0 11 -11 36 -24 56 l-24 35 30 29 c72
68 120 220 122 388 1 127 -9 159 -74 229 -78 85 -194 106 -569 106 -171 0
-222 -4 -246 -15z m620 -90 c127 -27 185 -100 185 -236 0 -156 -52 -312 -119
-356 -18 -13 -58 -31 -88 -40 l-54 -17 41 -16 c109 -42 141 -108 120 -242 -34
-225 -83 -374 -143 -436 -78 -82 -153 -94 -552 -90 l-291 3 147 698 c81 383
150 709 153 722 l6 25 263 0 c192 0 281 -4 332 -15z m1069 -37 c-6 -72 -84
-1340 -84 -1372 l0 -26 -195 0 -195 0 6 43 c3 23 10 69 15 102 5 33 9 73 9 88
l0 28 -66 -3 -67 -3 -36 -125 -36 -125 -197 -3 -198 -2 25 67 c13 38 123 358
244 713 122 355 223 651 226 658 3 9 68 12 279 12 l275 0 -5 -52z m919 33 c44
-14 102 -62 122 -102 46 -87 7 -360 -68 -474 -25 -39 -93 -79 -152 -90 l-40
-7 40 -14 c45 -17 81 -47 102 -88 22 -43 14 -111 -47 -403 l-54 -253 -173 0
c-132 0 -173 3 -173 13 0 6 25 129 55 271 56 264 65 336 43 354 -10 7 -77 23
-78 18 0 -1 -31 -146 -69 -324 -37 -177 -70 -325 -73 -327 -3 -3 -88 -4 -190
-3 l-184 3 152 720 c84 396 153 722 153 723 2 10 600 -6 634 -17z m952 4 c126
-27 185 -101 185 -233 0 -156 -52 -314 -119 -359 -19 -13 -58 -30 -88 -40
l-54 -17 38 -15 c129 -49 151 -126 104 -351 -44 -204 -68 -269 -125 -328 -76
-82 -152 -94 -552 -90 l-290 3 146 695 c81 382 150 707 153 723 l7 27 263 0
c192 0 281 -4 332 -15z m1045 3 c0 -7 -13 -71 -28 -143 l-28 -130 -127 -3
c-70 -1 -127 -4 -127 -6 0 -3 -11 -56 -25 -120 -14 -64 -25 -122 -25 -131 0
-12 18 -15 108 -15 60 0 111 -2 114 -5 5 -5 -24 -158 -47 -252 -5 -22 -9 -23
-123 -23 l-117 0 -29 -138 c-15 -75 -30 -147 -33 -159 -5 -23 -5 -23 131 -23
102 0 136 -3 136 -12 0 -7 -12 -73 -27 -145 l-28 -133 -328 0 -329 0 5 23 c3
12 72 338 153 725 l148 702 313 0 c244 0 313 -3 313 -12z m790 5 c0 -24 -80
-1310 -85 -1370 l-7 -73 -189 0 -189 0 0 28 c0 15 4 54 9 87 5 33 12 79 15
103 l6 42 -69 0 -68 0 -38 -130 -38 -130 -194 0 c-106 0 -193 3 -193 6 0 3
110 327 245 721 135 393 245 717 245 719 0 2 124 4 275 4 151 0 275 -3 275 -7z
m858 -3 c82 -11 130 -37 166 -88 40 -56 46 -157 18 -294 -39 -190 -92 -263
-209 -289 l-55 -13 51 -18 c92 -35 119 -97 97 -225 -12 -67 -84 -414 -101
-490 -5 -23 -7 -23 -181 -23 l-176 0 5 23 c17 68 107 509 112 548 8 56 -10 79
-60 79 -31 0 -34 -3 -42 -42 -5 -24 -36 -170 -69 -326 l-59 -282 -187 0 c-104
0 -188 4 -188 9 0 5 68 329 150 721 83 392 150 714 150 716 0 8 518 3 578 -6z
m789 -9 c-2 -11 -72 -337 -153 -725 l-149 -706 -187 0 c-109 0 -188 4 -188 9
0 5 68 329 150 720 83 391 150 713 150 716 0 3 86 5 191 5 184 0 191 -1 186
-19z m803 -3 c1 -13 -18 -339 -42 -725 l-42 -703 -193 0 c-148 0 -193 3 -193
13 0 6 7 57 15 112 22 148 26 136 -52 133 l-68 -3 -36 -125 -36 -125 -196 -3
-196 -2 59 172 c124 368 430 1261 436 1269 3 5 126 9 275 9 l269 0 0 -22z
m-4086 -623 c-25 -118 -34 -147 -34 -108 0 11 -11 36 -24 56 l-24 35 33 32
c18 17 41 49 50 71 10 22 20 38 21 36 2 -2 -8 -57 -22 -122z m-1027 -59 l-21
-98 -13 38 c-8 21 -18 43 -23 48 -5 5 6 26 30 54 22 25 40 49 40 55 0 6 2 8 4
6 2 -2 -6 -48 -17 -103z m3707 14 c-22 -110 -23 -111 -46 -58 l-20 47 38 45
c22 24 40 43 41 43 1 -1 -5 -36 -13 -77z m-2017 -305 l-30 -85 -89 0 c-88 0
-90 0 -85 23 3 12 10 48 17 79 l11 57 97 4 c53 1 100 4 103 5 3 1 -7 -36 -24
-83z"/>
<path d="M695 1153 c-15 -76 -30 -148 -33 -160 -4 -19 0 -23 20 -23 52 0 86
20 101 59 17 40 47 177 47 210 0 30 -28 51 -69 51 l-37 0 -29 -137z"/>
<path d="M606 723 c-10 -36 -76 -356 -76 -371 0 -21 77 -10 102 15 39 39 94
327 68 358 -18 22 -87 20 -94 -2z"/>
<path d="M1640 918 c-51 -156 -94 -289 -96 -295 -2 -10 14 -13 60 -13 l64 0 6
48 c3 26 17 146 31 267 14 121 28 232 31 248 15 75 -13 1 -96 -255z"/>
<path d="M2641 1134 c-18 -85 -30 -158 -27 -161 11 -11 77 9 96 29 21 22 60
173 60 231 0 41 -20 57 -68 57 l-29 0 -32 -156z"/>
<path d="M3632 1137 c-18 -84 -32 -156 -32 -160 0 -10 42 -9 78 4 36 12 52 47
77 167 23 114 12 142 -56 142 l-35 0 -32 -153z"/>
<path d="M3546 723 c-10 -32 -76 -355 -76 -370 0 -22 76 -11 102 14 39 39 94
327 68 358 -18 22 -87 20 -94 -2z"/>
<path d="M5347 928 c-48 -145 -89 -275 -93 -291 l-6 -27 61 0 c71 0 64 -12 81
150 6 58 20 176 31 264 11 87 18 160 16 162 -2 3 -43 -114 -90 -258z"/>
<path d="M6375 1276 c-26 -114 -63 -302 -60 -305 3 -2 24 0 47 5 54 12 72 41
98 164 24 115 16 141 -43 151 -32 5 -38 3 -42 -15z"/>
<path d="M7795 908 c-49 -150 -91 -279 -93 -285 -3 -10 13 -13 61 -13 l64 0 7
63 c4 34 18 158 32 275 14 118 24 218 22 224 -2 5 -44 -113 -93 -264z"/>
<path d="M8882 1610 c-18 -11 -37 -30 -42 -42 -6 -13 -60 -259 -120 -548 -138
-656 -124 -603 -160 -595 -41 9 -95 -19 -113 -58 -8 -18 -27 -94 -42 -169 -27
-131 -27 -138 -11 -163 l18 -27 206 4 c256 5 291 15 391 115 51 51 62 58 57
38 -18 -73 -19 -115 -1 -135 17 -19 32 -20 355 -20 323 0 338 1 363 20 31 25
38 46 77 228 40 193 36 202 -97 202 -72 0 -83 2 -83 18 0 9 50 251 110 536 61
286 110 531 110 546 0 14 -6 35 -14 46 -13 18 -30 19 -226 22 -193 3 -215 1
-249 -16 -36 -19 -37 -19 -60 -1 -21 17 -43 19 -230 19 -188 0 -209 -2 -239
-20z m408 -74 c0 -5 -210 -1001 -235 -1116 -47 -214 -99 -285 -232 -316 -65
-15 -353 -19 -353 -5 0 12 39 201 46 224 4 12 16 17 42 17 49 0 82 18 103 55
13 22 249 1102 249 1138 0 4 86 7 190 7 105 0 190 -2 190 -4z m499 -133 c-16
-76 -71 -336 -122 -578 l-93 -440 113 -3 c62 -1 113 -4 113 -6 0 -12 -59 -278
-63 -282 -2 -2 -139 -3 -303 -2 l-300 3 152 720 c84 396 153 721 153 723 1 1
86 2 190 2 l189 0 -29 -137z"/>
</g>
</svg>
